<svg width="34" height="33" viewBox="0 0 34 33" fill="none" xmlns="http://www.w3.org/2000/svg">
<path d="M11.6529 32.3921C8.71392 32.3763 5.74076 30.7985 4.40412 29.7188C3.06747 28.6392 2.45055 28.0223 1.73082 26.9426C1.01108 25.863 0.365162 24.672 0.137124 22.5728C-0.0909131 20.4737 0.0343029 13.4733 0.0343035 13.0106C0.034304 12.548 0.18853 12.0339 0.18853 12.0339C0.445576 11.3141 0.702627 11.2279 1.06249 11.0653C1.42236 10.9029 3.2217 10.8 3.68438 11.1599C4.14707 11.5198 4.19848 11.6226 4.35271 12.1881L4.40412 13.0106C4.40412 13.0106 4.14706 18.9228 4.55835 21.3904C4.96962 23.8581 5.47843 24.8669 7.02601 26.1715C8.57358 27.4762 9.81015 27.7435 11.6529 27.8166C13.4956 27.8898 15.0911 27.2484 16.6911 26.1715C18.291 25.0947 19.0811 23.0609 19.2615 21.3904C19.4419 19.7199 19.4269 16.5079 19.4672 13.0106C19.4672 13.0106 19.4672 12.4965 19.57 12.0853C19.6728 11.674 20.3411 10.7486 21.7806 10.8C23.2201 10.8514 23.6828 11.674 23.837 12.1367C23.9912 12.5994 23.9912 13.0106 23.9912 13.0106C23.9912 13.0106 24.2483 20.7735 23.8884 22.47C23.5285 24.1665 23.3199 24.7831 22.0891 26.9426C21.3381 28.0529 20.7649 28.6548 19.6728 29.7188C18.8557 30.3174 18.0956 30.7921 17.3594 31.1649C15.4838 32.1149 13.7634 32.4035 11.6529 32.3921Z" fill="#132238"/>
<path d="M21.9551 0.000441523C24.8941 0.0162389 27.8673 1.59412 29.2039 2.67373C30.5405 3.75336 31.1574 4.37027 31.8772 5.44987C32.5969 6.52947 33.2429 7.72053 33.4709 9.8197C33.6989 11.9188 33.5737 18.9192 33.5737 19.3819C33.5737 19.8445 33.4194 20.3586 33.4194 20.3586C33.1624 21.0784 32.9054 21.1647 32.5455 21.3272C32.1856 21.4897 30.3863 21.5925 29.9236 21.2326C29.4609 20.8727 29.4095 20.7699 29.2553 20.2044L29.2039 19.3819C29.2039 19.3819 29.461 13.4698 29.0496 11.0021C28.6384 8.53448 28.1296 7.52561 26.582 6.22101C25.0344 4.91641 23.7978 4.64907 21.9551 4.57591C20.1125 4.50274 18.5169 5.14411 16.917 6.22101C15.317 7.2979 14.5269 9.33161 14.3465 11.0021C14.1661 12.6726 14.1811 15.8846 14.1408 19.3819C14.1408 19.3819 14.1408 19.896 14.038 20.3072C13.9352 20.7185 13.2669 21.6439 11.8274 21.5925C10.3879 21.5411 9.92529 20.7185 9.77107 20.2558C9.61684 19.7931 9.61684 19.3819 9.61684 19.3819C9.61684 19.3819 9.35979 11.619 9.71966 9.92251C10.0795 8.22597 10.2881 7.60937 11.519 5.44987C12.2699 4.33964 12.8432 3.73778 13.9352 2.67373C14.7523 2.07521 15.5125 1.60045 16.2486 1.22758C18.1243 0.277655 19.8446 -0.0109031 21.9551 0.000441523Z" fill="#132238"/>
</svg>
